<mxfile host="Electron" modified="2024-01-24T20:41:48.819Z" agent="Mozilla/5.0 (Windows NT 10.0; Win64; x64) AppleWebKit/537.36 (KHTML, like Gecko) draw.io/22.1.21 Chrome/120.0.6099.109 Electron/28.1.0 Safari/537.36" etag="EGbdSZwJLMLI_kF5NR07" version="22.1.21" type="device">
  <diagram id="C5RBs43oDa-KdzZeNtuy" name="Page-1">
    <mxGraphModel dx="1920" dy="1147" grid="1" gridSize="10" guides="1" tooltips="1" connect="1" arrows="1" fold="1" page="1" pageScale="1" pageWidth="827" pageHeight="1169" math="0" shadow="0">
      <root>
        <mxCell id="WIyWlLk6GJQsqaUBKTNV-0" />
        <mxCell id="WIyWlLk6GJQsqaUBKTNV-1" parent="WIyWlLk6GJQsqaUBKTNV-0" />
        <mxCell id="3XRoCKfG7liCehZZLe6Q-2" style="edgeStyle=orthogonalEdgeStyle;rounded=0;orthogonalLoop=1;jettySize=auto;html=1;exitX=0.5;exitY=1;exitDx=0;exitDy=0;entryX=0.5;entryY=0;entryDx=0;entryDy=0;" parent="WIyWlLk6GJQsqaUBKTNV-1" source="3XRoCKfG7liCehZZLe6Q-0" target="3XRoCKfG7liCehZZLe6Q-1" edge="1">
          <mxGeometry relative="1" as="geometry" />
        </mxCell>
        <mxCell id="3XRoCKfG7liCehZZLe6Q-0" value="&lt;font style=&quot;font-size: 20px;&quot;&gt;start&lt;/font&gt;" style="rounded=1;whiteSpace=wrap;html=1;fontSize=12;glass=0;strokeWidth=1;shadow=0;arcSize=50;fillColor=#dae8fc;strokeColor=#6c8ebf;" parent="WIyWlLk6GJQsqaUBKTNV-1" vertex="1">
          <mxGeometry x="404" y="174" width="160" height="40" as="geometry" />
        </mxCell>
        <mxCell id="zXtxW0wn664vxFwG__-A-4" style="edgeStyle=orthogonalEdgeStyle;rounded=0;orthogonalLoop=1;jettySize=auto;html=1;exitX=0;exitY=0.5;exitDx=0;exitDy=0;" edge="1" parent="WIyWlLk6GJQsqaUBKTNV-1" source="3XRoCKfG7liCehZZLe6Q-1">
          <mxGeometry relative="1" as="geometry">
            <mxPoint x="179.11111111111086" y="414.0915032679736" as="targetPoint" />
          </mxGeometry>
        </mxCell>
        <mxCell id="3XRoCKfG7liCehZZLe6Q-1" value="&lt;div style=&quot;text-align: left; line-height: 160%;&quot;&gt;&lt;span style=&quot;font-size: 20px; background-color: initial;&quot;&gt;Read Age&lt;/span&gt;&lt;/div&gt;&lt;font style=&quot;font-size: 20px;&quot;&gt;&lt;div style=&quot;text-align: left; line-height: 160%;&quot;&gt;&lt;span style=&quot;background-color: initial;&quot;&gt;Read has a diver license&lt;/span&gt;&lt;/div&gt;&lt;div style=&quot;text-align: left; line-height: 160%;&quot;&gt;Read has Recomandation&lt;/div&gt;&lt;/font&gt;" style="shape=parallelogram;perimeter=parallelogramPerimeter;whiteSpace=wrap;html=1;fixedSize=1;fillColor=#d5e8d4;strokeColor=#82b366;" parent="WIyWlLk6GJQsqaUBKTNV-1" vertex="1">
          <mxGeometry x="324" y="264" width="320" height="120" as="geometry" />
        </mxCell>
        <mxCell id="3XRoCKfG7liCehZZLe6Q-6" style="edgeStyle=orthogonalEdgeStyle;rounded=0;orthogonalLoop=1;jettySize=auto;html=1;exitX=0.5;exitY=1;exitDx=0;exitDy=0;entryX=0.5;entryY=0;entryDx=0;entryDy=0;" parent="WIyWlLk6GJQsqaUBKTNV-1" source="3XRoCKfG7liCehZZLe6Q-3" target="3XRoCKfG7liCehZZLe6Q-5" edge="1">
          <mxGeometry relative="1" as="geometry" />
        </mxCell>
        <mxCell id="3XRoCKfG7liCehZZLe6Q-3" value="&lt;h3&gt;&lt;font style=&quot;font-size: 20px;&quot;&gt;Result = (&lt;font color=&quot;#000066&quot;&gt;Age&amp;gt; 21&lt;/font&gt; &lt;font color=&quot;#990000&quot;&gt;And&lt;/font&gt; &lt;font color=&quot;#000066&quot;&gt;HasDirerLicense == true&lt;/font&gt;)&lt;/font&gt;&lt;/h3&gt;" style="rounded=0;whiteSpace=wrap;html=1;fillColor=#e1d5e7;strokeColor=#9673a6;" parent="WIyWlLk6GJQsqaUBKTNV-1" vertex="1">
          <mxGeometry x="324" y="424" width="320" height="120" as="geometry" />
        </mxCell>
        <mxCell id="3XRoCKfG7liCehZZLe6Q-9" style="edgeStyle=orthogonalEdgeStyle;rounded=0;orthogonalLoop=1;jettySize=auto;html=1;exitX=1;exitY=0.5;exitDx=0;exitDy=0;entryX=0.5;entryY=0;entryDx=0;entryDy=0;" parent="WIyWlLk6GJQsqaUBKTNV-1" source="3XRoCKfG7liCehZZLe6Q-5" target="3XRoCKfG7liCehZZLe6Q-8" edge="1">
          <mxGeometry relative="1" as="geometry" />
        </mxCell>
        <mxCell id="3XRoCKfG7liCehZZLe6Q-10" value="No" style="edgeLabel;html=1;align=center;verticalAlign=middle;resizable=0;points=[];fontSize=14;" parent="3XRoCKfG7liCehZZLe6Q-9" vertex="1" connectable="0">
          <mxGeometry x="0.2928" relative="1" as="geometry">
            <mxPoint as="offset" />
          </mxGeometry>
        </mxCell>
        <mxCell id="3XRoCKfG7liCehZZLe6Q-11" style="edgeStyle=orthogonalEdgeStyle;rounded=0;orthogonalLoop=1;jettySize=auto;html=1;exitX=0;exitY=0.5;exitDx=0;exitDy=0;" parent="WIyWlLk6GJQsqaUBKTNV-1" source="3XRoCKfG7liCehZZLe6Q-5" target="3XRoCKfG7liCehZZLe6Q-7" edge="1">
          <mxGeometry relative="1" as="geometry" />
        </mxCell>
        <mxCell id="3XRoCKfG7liCehZZLe6Q-12" value="Yes" style="edgeLabel;html=1;align=center;verticalAlign=middle;resizable=0;points=[];fontSize=14;" parent="3XRoCKfG7liCehZZLe6Q-11" vertex="1" connectable="0">
          <mxGeometry x="0.3275" y="1" relative="1" as="geometry">
            <mxPoint y="1" as="offset" />
          </mxGeometry>
        </mxCell>
        <mxCell id="3XRoCKfG7liCehZZLe6Q-5" value="&lt;font style=&quot;font-size: 20px;&quot;&gt;&lt;font style=&quot;font-size: 20px;&quot;&gt;R&lt;/font&gt;esult = true?&amp;nbsp;&lt;/font&gt;" style="rhombus;whiteSpace=wrap;html=1;fillColor=#f8cecc;strokeColor=#b85450;" parent="WIyWlLk6GJQsqaUBKTNV-1" vertex="1">
          <mxGeometry x="396.5" y="584" width="175" height="170" as="geometry" />
        </mxCell>
        <mxCell id="3XRoCKfG7liCehZZLe6Q-19" style="edgeStyle=orthogonalEdgeStyle;rounded=0;orthogonalLoop=1;jettySize=auto;html=1;exitX=0.5;exitY=1;exitDx=0;exitDy=0;" parent="WIyWlLk6GJQsqaUBKTNV-1" source="3XRoCKfG7liCehZZLe6Q-7" edge="1">
          <mxGeometry relative="1" as="geometry">
            <mxPoint x="484" y="954" as="targetPoint" />
          </mxGeometry>
        </mxCell>
        <mxCell id="3XRoCKfG7liCehZZLe6Q-7" value="&lt;font style=&quot;font-size: 20px;&quot;&gt;print &quot;hired&quot;&lt;/font&gt;" style="shape=parallelogram;perimeter=parallelogramPerimeter;whiteSpace=wrap;html=1;fixedSize=1;fillColor=#d5e8d4;strokeColor=#82b366;" parent="WIyWlLk6GJQsqaUBKTNV-1" vertex="1">
          <mxGeometry x="234" y="784" width="210" height="60" as="geometry" />
        </mxCell>
        <mxCell id="3XRoCKfG7liCehZZLe6Q-18" style="edgeStyle=orthogonalEdgeStyle;rounded=0;orthogonalLoop=1;jettySize=auto;html=1;exitX=0.5;exitY=1;exitDx=0;exitDy=0;entryX=0.5;entryY=0;entryDx=0;entryDy=0;" parent="WIyWlLk6GJQsqaUBKTNV-1" source="3XRoCKfG7liCehZZLe6Q-8" target="3XRoCKfG7liCehZZLe6Q-17" edge="1">
          <mxGeometry relative="1" as="geometry" />
        </mxCell>
        <mxCell id="3XRoCKfG7liCehZZLe6Q-8" value="&lt;font style=&quot;font-size: 20px;&quot;&gt;print &quot;Rejected&quot;&lt;/font&gt;" style="shape=parallelogram;perimeter=parallelogramPerimeter;whiteSpace=wrap;html=1;fixedSize=1;fillColor=#d5e8d4;strokeColor=#82b366;" parent="WIyWlLk6GJQsqaUBKTNV-1" vertex="1">
          <mxGeometry x="524" y="784" width="210" height="60" as="geometry" />
        </mxCell>
        <mxCell id="3XRoCKfG7liCehZZLe6Q-17" value="&lt;font style=&quot;font-size: 21px;&quot;&gt;end&lt;/font&gt;" style="rounded=1;whiteSpace=wrap;html=1;arcSize=50;fillColor=#dae8fc;strokeColor=#6c8ebf;" parent="WIyWlLk6GJQsqaUBKTNV-1" vertex="1">
          <mxGeometry x="424" y="954" width="120" height="40" as="geometry" />
        </mxCell>
        <mxCell id="zXtxW0wn664vxFwG__-A-5" style="edgeStyle=orthogonalEdgeStyle;rounded=0;orthogonalLoop=1;jettySize=auto;html=1;exitX=1;exitY=0.5;exitDx=0;exitDy=0;entryX=0;entryY=0.5;entryDx=0;entryDy=0;" edge="1" parent="WIyWlLk6GJQsqaUBKTNV-1" target="3XRoCKfG7liCehZZLe6Q-3">
          <mxGeometry relative="1" as="geometry">
            <mxPoint x="264" y="484" as="sourcePoint" />
          </mxGeometry>
        </mxCell>
        <mxCell id="zXtxW0wn664vxFwG__-A-6" value="no" style="edgeLabel;html=1;align=center;verticalAlign=middle;resizable=0;points=[];fontSize=23;" vertex="1" connectable="0" parent="zXtxW0wn664vxFwG__-A-5">
          <mxGeometry x="0.0667" y="-1" relative="1" as="geometry">
            <mxPoint x="-12" y="-1" as="offset" />
          </mxGeometry>
        </mxCell>
        <mxCell id="zXtxW0wn664vxFwG__-A-1" value="&lt;font style=&quot;font-size: 15px;&quot;&gt;Recomandation=&lt;br&gt;&amp;nbsp;true?&amp;nbsp;&lt;/font&gt;" style="rhombus;whiteSpace=wrap;html=1;fillColor=#f8cecc;strokeColor=#b85450;" vertex="1" parent="WIyWlLk6GJQsqaUBKTNV-1">
          <mxGeometry x="93" y="414" width="170" height="140" as="geometry" />
        </mxCell>
        <mxCell id="zXtxW0wn664vxFwG__-A-7" style="edgeStyle=orthogonalEdgeStyle;rounded=0;orthogonalLoop=1;jettySize=auto;html=1;exitX=0.5;exitY=1;exitDx=0;exitDy=0;entryX=0.038;entryY=0.333;entryDx=0;entryDy=0;entryPerimeter=0;" edge="1" parent="WIyWlLk6GJQsqaUBKTNV-1" target="3XRoCKfG7liCehZZLe6Q-7">
          <mxGeometry relative="1" as="geometry">
            <mxPoint x="179" y="554" as="sourcePoint" />
            <Array as="points">
              <mxPoint x="179" y="804" />
            </Array>
          </mxGeometry>
        </mxCell>
        <mxCell id="zXtxW0wn664vxFwG__-A-8" value="yes" style="edgeLabel;html=1;align=center;verticalAlign=middle;resizable=0;points=[];fontSize=23;" vertex="1" connectable="0" parent="zXtxW0wn664vxFwG__-A-7">
          <mxGeometry x="-0.2268" y="-3" relative="1" as="geometry">
            <mxPoint x="3" y="-11" as="offset" />
          </mxGeometry>
        </mxCell>
      </root>
    </mxGraphModel>
  </diagram>
</mxfile>
